name Run_40002_IK.mot
datacolumns 164
datarows 4
range 0.86 0.89
endheader
time	         pelvis_tilt	         pelvis_list	     pelvis_rotation	           pelvis_tx	           pelvis_ty	           pelvis_tz	       hip_flexion_r	     hip_adduction_r	      hip_rotation_r	        knee_angle_r	       ankle_angle_r	       hip_flexion_l	     hip_adduction_l	      hip_rotation_l	        knee_angle_l	       ankle_angle_l	    lumbar_extension	      lumbar_bending	     lumbar_rotation	          arm_flex_r	           arm_add_r	           arm_rot_r	        elbow_flex_r	           pro_sup_r	          arm_flex_l	           arm_add_l	           arm_rot_l	        elbow_flex_l	           pro_sup_l	    subtalar_angle_r	         mtp_angle_r	    subtalar_angle_l	         mtp_angle_l	        wrist_flex_r	         wrist_dev_r	        wrist_flex_l	         wrist_dev_l	             LASI_tx	             LASI_ty	             LASI_tz	             RASI_tx	             RASI_ty	             RASI_tz	             LPSI_tx	             LPSI_ty	             LPSI_tz	             RPSI_tx	             RPSI_ty	             RPSI_tz	             RTH1_tx	             RTH1_ty	             RTH1_tz	             RTH2_tx	             RTH2_ty	             RTH2_tz	             RTH3_tx	             RTH3_ty	             RTH3_tz	             LTH1_tx	             LTH1_ty	             LTH1_tz	             LTH2_tx	             LTH2_ty	             LTH2_tz	             LTH3_tx	             LTH3_ty	             LTH3_tz	             RTB1_tx	             RTB1_ty	             RTB1_tz	             RTB2_tx	             RTB2_ty	             RTB2_tz	             RTB3_tx	             RTB3_ty	             RTB3_tz	             LTB1_tx	             LTB1_ty	             LTB1_tz	             LTB2_tx	             LTB2_ty	             LTB2_tz	             LTB3_tx	             LTB3_ty	             LTB3_tz	             RCAL_tx	             RCAL_ty	             RCAL_tz	             RTOE_tx	             RTOE_ty	             RTOE_tz	             RMT5_tx	             RMT5_ty	             RMT5_tz	             LCAL_tx	             LCAL_ty	             LCAL_tz	             LTOE_tx	             LTOE_ty	             LTOE_tz	             LMT5_tx	             LMT5_ty	             LMT5_tz	             LACR_tx	             LACR_ty	             LACR_tz	             RACR_tx	             RACR_ty	             RACR_tz	             CLAV_tx	             CLAV_ty	             CLAV_tz	               C7_tx	               C7_ty	               C7_tz	             RUA1_tx	             RUA1_ty	             RUA1_tz	             RUA2_tx	             RUA2_ty	             RUA2_tz	             RUA3_tx	             RUA3_ty	             RUA3_tz	             RLEL_tx	             RLEL_ty	             RLEL_tz	             RMEL_tx	             RMEL_ty	             RMEL_tz	             LUA1_tx	             LUA1_ty	             LUA1_tz	             LUA2_tx	             LUA2_ty	             LUA2_tz	             LUA3_tx	             LUA3_ty	             LUA3_tz	             LLEL_tx	             LLEL_ty	             LLEL_tz	             LMEL_tx	             LMEL_ty	             LMEL_tz	      RFAsuperior_tx	      RFAsuperior_ty	      RFAsuperior_tz	        RFAradius_tx	        RFAradius_ty	        RFAradius_tz	          RFAulna_tx	          RFAulna_ty	          RFAulna_tz	      LFAsuperior_tx	      LFAsuperior_ty	      LFAsuperior_tz	        LFAradius_tx	        LFAradius_ty	        LFAradius_tz	          LFAulna_tx	          LFAulna_ty	          LFAulna_tz	
0.86	        -11.84817988	         -1.67630232	         -8.71239659	          1.02900010	          1.03867142	         -0.33102446	         33.40472234	          9.20881615	          6.63623366	         -6.22675906	          0.35653895	         -1.64288167	          2.47208472	         -4.54803408	        -63.74683790	        -13.68545380	          3.13112272	          5.19714264	         -3.81006864	        -50.76671306	        -20.20126725	        -16.65847687	        112.43443993	        108.55293504	        -33.63094617	        -14.09023118	         -5.10095408	        132.42676702	        100.03237209	          0.00000000	          0.00000000	          0.00000000	          0.00000000	          0.00000000	          0.00000000	          0.00000000	          0.00000000	          1.06252574	          1.06388560	         -0.45967169	          1.02415837	          1.08822970	         -0.21500061	          0.89943866	          1.13245644	         -0.41858733	          0.87664468	          1.13252922	         -0.30617220	          0.96295335	          0.96713909	         -0.16189349	          0.96588610	          0.80977602	         -0.18852600	          1.06041408	          0.68117513	         -0.19557872	          0.99524916	          0.93175114	         -0.50968123	          0.87308264	          0.80993977	         -0.47454265	          0.88222768	          0.66601839	         -0.46319820	          1.19817689	          0.46284674	         -0.26680724	          1.13069571	          0.39410276	         -0.20529511	          1.22225106	          0.27665189	         -0.28930949	          0.76475021	          0.47393143	         -0.40320000	          0.63828781	          0.52528301	         -0.45948408	          0.54892634	          0.43511147	         -0.41612885	          1.14853168	          0.11125142	         -0.29641863	          1.37430496	          0.18685356	         -0.33793698	          1.35457108	          0.12441080	         -0.25012088	          0.40730374	          0.52557004	         -0.40324050	          0.39187803	          0.28935727	         -0.38706121	          0.34755804	          0.33266372	         -0.48068943	          1.02578760	          1.57739689	         -0.48562546	          0.98890856	          1.54999833	         -0.17324144	          1.06465381	          1.51768287	         -0.28919616	          0.95163599	          1.58473248	         -0.34008907	          0.84808496	          1.50318981	         -0.14671920	          0.85849677	          1.44030471	         -0.09671743	          0.75875975	          1.40555257	         -0.07944668	          0.70192538	          1.35956682	         -0.06447642	          0.71465991	          1.32657999	         -0.14881416	          0.93842571	          1.48686630	         -0.56025434	          0.97167070	          1.41493073	         -0.58797517	          0.90450280	          1.35455444	         -0.63109782	          0.89345415	          1.28629347	         -0.65394540	          0.85344273	          1.26376757	         -0.57237684	          0.77421147	          1.27991423	         -0.04628324	          0.92693902	          1.19841154	         -0.10344938	          0.88347840	          1.15945397	         -0.06663721	          0.96300815	          1.25036081	         -0.62346595	          1.09126043	          1.29501656	         -0.49204921	          1.10513676	          1.22627415	         -0.51379430	
0.87	        -11.85598140	         -1.73543667	         -8.71651956	          1.02714220	          1.03217155	         -0.33107222	         33.16450480	          9.46155617	          6.06935079	         -7.57245542	          0.74971274	          0.99804532	          1.63041948	         -5.11861464	        -70.27225038	        -12.38900600	          2.82366798	          5.39117640	         -3.38751425	        -49.15569936	        -20.72184532	        -15.86523217	        112.11304749	        108.34482843	        -34.05422605	        -14.03850582	         -5.03796675	        130.38017208	        101.78038213	          0.00000000	          0.00000000	          0.00000000	          0.00000000	          0.00000000	          0.00000000	          0.00000000	          0.00000000	          1.06073975	          1.05774404	         -0.46126178	          1.02209961	          1.08206669	         -0.21450252	          0.89798892	          1.12608522	         -0.41840221	          0.87513363	          1.12577272	         -0.30634965	          0.95856930	          0.95995851	         -0.16124529	          0.96288944	          0.80234785	         -0.19106550	          1.05793522	          0.67472475	         -0.19858582	          0.99655687	          0.92644708	         -0.50985024	          0.87849528	          0.80048572	         -0.47415123	          0.89343332	          0.65719907	         -0.46596235	          1.19119165	          0.45273193	         -0.26861466	          1.12142915	          0.38562575	         -0.20792439	          1.21036007	          0.26597679	         -0.29163186	          0.77823893	          0.46853806	         -0.40726596	          0.65489692	          0.52833847	         -0.46135871	          0.56038469	          0.44324634	         -0.41880692	          1.13227949	          0.10243676	         -0.29990035	          1.35952800	          0.17520038	         -0.34067624	          1.33856189	          0.10961342	         -0.25441792	          0.42420664	          0.54191181	         -0.40102297	          0.39659034	          0.30613054	         -0.39630240	          0.35640111	          0.35620425	         -0.48848294	          1.02509575	          1.57096281	         -0.48500355	          0.98995073	          1.54255031	         -0.17224680	          1.06512546	          1.51117469	         -0.28855074	          0.95170488	          1.57866874	         -0.33926240	          0.84984219	          1.49390280	         -0.14264596	          0.86220775	          1.43011650	         -0.09373303	          0.76388697	          1.39286307	         -0.07418916	          0.70785510	          1.34631103	         -0.05878078	          0.71950568	          1.31426443	         -0.14339022	          0.93628214	          1.48187732	         -0.55900755	          0.96879533	          1.40945785	         -0.58721765	          0.90062508	          1.35045836	         -0.63016044	          0.88857430	          1.28247962	         -0.65282476	          0.84865451	          1.26021425	         -0.57175918	          0.78149602	          1.26771081	         -0.04221378	          0.93464169	          1.18896840	         -0.10248727	          0.89230075	          1.14927617	         -0.06513253	          0.95678556	          1.24325205	         -0.62400495	          1.08782991	          1.27850695	         -0.49185849	          1.09923698	          1.21052913	         -0.51730636	
0.88	        -11.88648845	         -1.67617608	         -8.66590557	          1.02516949	          1.02471372	         -0.33135430	         32.97054129	          9.49625009	          5.38427031	         -9.53179618	          0.30912730	          3.74961306	          0.85432876	         -5.57984488	        -76.46014595	        -10.51239602	          2.58824005	          5.46114763	         -2.91592520	        -47.40511627	        -21.26983790	        -15.01869544	        111.61806863	        107.93284547	        -34.44020891	        -14.02542436	         -4.87739615	        128.12970866	        103.64136911	          0.00000000	          0.00000000	          0.00000000	          0.00000000	          0.00000000	          0.00000000	          0.00000000	          0.00000000	          1.05879528	          1.05093273	         -0.46255539	          1.02014482	          1.07434572	         -0.21444284	          0.89632843	          1.11895422	         -0.41809602	          0.87356208	          1.11767940	         -0.30623728	          0.95462675	          0.95176706	         -0.16112516	          0.95986120	          0.79406628	         -0.19510286	          1.05487868	          0.66747970	         -0.20153991	          0.99771913	          0.92057807	         -0.51033001	          0.88411728	          0.79062067	         -0.47358103	          0.90529191	          0.64787604	         -0.46916548	          1.18264020	          0.44070682	         -0.26976681	          1.10958994	          0.37595462	         -0.21004980	          1.19550311	          0.25331421	         -0.29316802	          0.79341005	          0.46261788	         -0.41234306	          0.67307910	          0.53058845	         -0.46351348	          0.57440899	          0.44991371	         -0.42183175	          1.11102493	          0.09513122	         -0.30213212	          1.34045353	          0.15764381	         -0.34311010	          1.31657229	          0.09096250	         -0.25784958	          0.44228143	          0.55526037	         -0.39881645	          0.40694027	          0.32046422	         -0.40468593	          0.37004092	          0.37588488	         -0.49532845	          1.02398143	          1.56342359	         -0.48445328	          0.99100199	          1.53417000	         -0.17105200	          1.06554986	          1.50399517	         -0.28784424	          0.95156894	          1.57160313	         -0.33844039	          0.85168064	          1.48322643	         -0.13824032	          0.86644910	          1.41858510	         -0.09045228	          0.76970834	          1.37873675	         -0.06851198	          0.71466264	          1.33155439	         -0.05253199	          0.72501029	          1.30056096	         -0.13743892	          0.93382356	          1.47559254	         -0.55785306	          0.96555964	          1.40264155	         -0.58644185	          0.89643463	          1.34496043	         -0.62910144	          0.88306583	          1.27757344	         -0.65180581	          0.84353602	          1.25559646	         -0.57116212	          0.78963426	          1.25395023	         -0.03767844	          0.94303836	          1.17814518	         -0.10121248	          0.90190213	          1.13758049	         -0.06340319	          0.94975374	          1.23493469	         -0.62464007	          1.08329689	          1.26024655	         -0.49200432	          1.09210044	          1.19342633	         -0.52126722	
0.89	        -11.93231868	         -1.58262777	         -8.57446796	          1.02310244	          1.01636241	         -0.33187845	         32.94045505	          9.41992034	          4.29748630	        -12.28049349	         -1.02818514	          6.61897870	          0.05160993	         -5.96962609	        -82.33970620	         -8.17786272	          2.39373312	          5.51679157	         -2.34496643	        -45.58090587	        -21.82795885	        -14.18383825	        110.97372269	        107.34362597	        -34.75859157	        -14.05151697	         -4.60147529	        125.64510585	        105.29484357	          0.00000000	          0.00000000	          0.00000000	          0.00000000	          0.00000000	          0.00000000	          0.00000000	          0.00000000	          1.05673839	          1.04343103	         -0.46388644	          1.01817337	          1.06502428	         -0.21470444	          0.89451598	          1.11100054	         -0.41796769	          0.87180807	          1.10847680	         -0.30597737	          0.95178230	          0.94220275	         -0.16219848	          0.95643973	          0.78523144	         -0.19899242	          1.05122540	          0.65894229	         -0.20345797	          0.99856457	          0.91416679	         -0.51113189	          0.89029904	          0.78009496	         -0.47340787	          0.91796731	          0.63799657	         -0.47282417	          1.17318629	          0.42745796	         -0.27069500	          1.09643623	          0.36547981	         -0.21185297	          1.17817115	          0.23962895	         -0.29551898	          0.81023415	          0.45610673	         -0.41818805	          0.69280893	          0.53179977	         -0.46573853	          0.59085041	          0.45488582	         -0.42532065	          1.08513505	          0.09125724	         -0.30514552	          1.31761234	          0.13356835	         -0.34544059	          1.28880613	          0.07127418	         -0.26010964	          0.46134946	          0.56570800	         -0.39689260	          0.42243731	          0.33196174	         -0.41228493	          0.38744649	          0.39153939	         -0.50120218	          1.02241793	          1.55488980	         -0.48377584	          0.99221172	          1.52487346	         -0.16962362	          1.06586684	          1.49590109	         -0.28729882	          0.95115127	          1.56330489	         -0.33742120	          0.85372788	          1.47122181	         -0.13352342	          0.87128532	          1.40596775	         -0.08682058	          0.77626481	          1.36340320	         -0.06253005	          0.72249542	          1.31552809	         -0.04581471	          0.73118349	          1.28558268	         -0.13097159	          0.93081452	          1.46812291	         -0.55646865	          0.96184884	          1.39466506	         -0.58559526	          0.89192445	          1.33819374	         -0.62780121	          0.87695029	          1.27171676	         -0.65087626	          0.83775324	          1.25007638	         -0.57049344	          0.79877488	          1.23887919	         -0.03281526	          0.95209506	          1.16592504	         -0.09970102	          0.91222807	          1.12438062	         -0.06154692	          0.94199628	          1.22546614	         -0.62548169	          1.07772451	          1.24040642	         -0.49283100	          1.08370784	          1.17493413	         -0.52567478	
